<?xml version="1.0" encoding="UTF-8"?>
<!DOCTYPE svg PUBLIC "-//W3C//DTD SVG 1.1//EN" "http://www.w3.org/Graphics/SVG/1.1/DTD/svg11.dtd">
<svg xmlns="http://www.w3.org/2000/svg" version="1.1" width="150px" height="150px" style="shape-rendering:geometricPrecision; text-rendering:geometricPrecision; image-rendering:optimizeQuality; fill-rule:evenodd; clip-rule:evenodd" xmlns:xlink="http://www.w3.org/1999/xlink">
<g><path style="opacity:0.004" fill="#451f14" d="M 89.5,5.5 C 90.8333,6.16667 90.8333,6.16667 89.5,5.5 Z"/></g>
<g><path style="opacity:0.004" fill="#3e1b12" d="M 89.5,6.5 C 89.5,6.83333 89.5,7.16667 89.5,7.5C 86.8333,7.16667 86.8333,6.83333 89.5,6.5 Z"/></g>
<g><path style="opacity:0.004" fill="#421c13" d="M 98.5,7.5 C 97.8333,6.16667 97.8333,6.16667 98.5,7.5 Z"/></g>
<g><path style="opacity:0.004" fill="#f4f0b7" d="M 63.5,7.5 C 64.8333,8.16667 64.8333,8.16667 63.5,7.5 Z"/></g>
<g><path style="opacity:0.004" fill="#361409" d="M 86.5,8.5 C 85.8333,7.16667 85.8333,7.16667 86.5,8.5 Z"/></g>
<g><path style="opacity:0.004" fill="#4d231a" d="M 98.5,7.5 C 99.8333,8.16667 99.8333,8.16667 98.5,7.5 Z"/></g>
<g><path style="opacity:0.004" fill="#f4f8a5" d="M 67.5,9.5 C 68.8333,10.1667 68.8333,10.1667 67.5,9.5 Z"/></g>
<g><path style="opacity:0.004" fill="#35150a" d="M 85.5,10.5 C 84.8333,9.16667 84.8333,9.16667 85.5,10.5 Z"/></g>
<g><path style="opacity:0.004" fill="#52251e" d="M 100.5,10.5 C 101.833,11.1667 101.833,11.1667 100.5,10.5 Z"/></g>
<g><path style="opacity:0.004" fill="#f9f7a8" d="M 69.5,11.5 C 70.8333,12.1667 70.8333,12.1667 69.5,11.5 Z"/></g>
<g><path style="opacity:1" fill="#70423a" d="M 92.5,17.5 C 90.3736,16.9518 88.3736,16.2852 86.5,15.5C 88.256,14.4479 88.9227,12.7812 88.5,10.5C 90.9115,10.1367 92.4115,11.1367 93,13.5C 93.3333,13.1667 93.6667,12.8333 94,12.5C 94.1218,14.2816 93.6218,15.9482 92.5,17.5 Z"/></g>
<g><path style="opacity:0.004" fill="#f9d71d" d="M 58.5,13.5 C 57.8333,12.1667 57.8333,12.1667 58.5,13.5 Z"/></g>
<g><path style="opacity:0.004" fill="#200b03" d="M 82.5,13.5 C 83.525,13.8966 83.6917,14.5632 83,15.5C 82.5357,14.9056 82.369,14.2389 82.5,13.5 Z"/></g>
<g><path style="opacity:0.004" fill="#5b2921" d="M 102.5,14.5 C 103.833,15.1667 103.833,15.1667 102.5,14.5 Z"/></g>
<g><path style="opacity:0.004" fill="#612e29" d="M 104.5,17.5 C 103.833,16.1667 103.833,16.1667 104.5,17.5 Z"/></g>
<g><path style="opacity:0.579" fill="#f7d51e" d="M 60.5,11.5 C 61.075,13.4113 62.075,15.078 63.5,16.5C 63.1757,17.8121 62.5091,18.6454 61.5,19C 62.5067,20.52 63.1734,22.1867 63.5,24C 63.3917,25.6811 62.7251,26.8478 61.5,27.5C 61.2624,25.5956 60.2624,24.2623 58.5,23.5C 57.1667,20.1667 57.1667,16.8333 58.5,13.5C 59.1667,12.8333 59.8333,12.1667 60.5,11.5 Z"/></g>
<g><path style="opacity:0.004" fill="#662f2a" d="M 104.5,17.5 C 105.833,18.1667 105.833,18.1667 104.5,17.5 Z"/></g>
<g><path style="opacity:1" fill="#f8f198" d="M 67.5,10.5 C 67.8333,11.5 68.5,12.1667 69.5,12.5C 69.5774,13.7498 70.244,14.5831 71.5,15C 70.5769,17.0408 70.2436,19.2075 70.5,21.5C 70.1667,21.5 69.8333,21.5 69.5,21.5C 66.66,20.7589 64.66,19.0922 63.5,16.5C 62.075,15.078 61.075,13.4113 60.5,11.5C 62.5419,9.40941 64.8752,9.07608 67.5,10.5 Z"/></g>
<g><path style="opacity:0.004" fill="#acb2b9" d="M 70.5,21.5 C 71.2389,21.369 71.9056,21.5357 72.5,22C 71.5632,22.6917 70.8966,22.525 70.5,21.5 Z"/></g>
<g><path style="opacity:0.004" fill="#9fabca" d="M 77.5,22.5 C 79.2884,21.3775 81.2884,21.2109 83.5,22C 81.5273,22.4955 79.5273,22.6621 77.5,22.5 Z"/></g>
<g><path style="opacity:1" fill="#38180f" d="M 95.5,7.5 C 97.4708,14.7167 98.8041,22.05 99.5,29.5C 98.209,29.2627 97.209,29.596 96.5,30.5C 95.8333,30.5 95.5,30.8333 95.5,31.5C 93.0503,31.1257 92.0503,29.6257 92.5,27C 92.6667,25.8333 92.8333,24.6667 93,23.5C 94.3368,22.0955 95.5035,20.5955 96.5,19C 96.1667,18.5 95.8333,18 95.5,17.5C 94.3132,18.6527 93.3132,18.6527 92.5,17.5C 93.6218,15.9482 94.1218,14.2816 94,12.5C 93.6667,12.8333 93.3333,13.1667 93,13.5C 92.4115,11.1367 90.9115,10.1367 88.5,10.5C 88.9227,12.7812 88.256,14.4479 86.5,15.5C 86.1667,15.5 85.8333,15.5 85.5,15.5C 84.2801,13.9504 84.2801,12.2837 85.5,10.5C 86.3382,10.1583 86.6716,9.49162 86.5,8.5C 87.791,8.73731 88.791,8.40397 89.5,7.5C 91.5487,6.35858 93.5487,6.35858 95.5,7.5 Z"/></g>
<g><path style="opacity:0.996" fill="#ece15e" d="M 63.5,16.5 C 64.66,19.0922 66.66,20.7589 69.5,21.5C 68.758,23.9798 67.758,26.3131 66.5,28.5C 64.8333,28.5 63.1667,28.5 61.5,28.5C 61.5,28.1667 61.5,27.8333 61.5,27.5C 62.7251,26.8478 63.3917,25.6811 63.5,24C 63.1734,22.1867 62.5067,20.52 61.5,19C 62.5091,18.6454 63.1757,17.8121 63.5,16.5 Z"/></g>
<g><path style="opacity:1" fill="#f0c09a" d="M 85.5,15.5 C 85.8333,15.5 86.1667,15.5 86.5,15.5C 88.3736,16.2852 90.3736,16.9518 92.5,17.5C 93.3132,18.6527 94.3132,18.6527 95.5,17.5C 95.8333,18 96.1667,18.5 96.5,19C 95.5035,20.5955 94.3368,22.0955 93,23.5C 92.8333,24.6667 92.6667,25.8333 92.5,27C 92.0503,29.6257 93.0503,31.1257 95.5,31.5C 95.5,31.8333 95.5,32.1667 95.5,32.5C 94.2008,34.4123 93.2008,36.4123 92.5,38.5C 91.0821,36.6921 89.0821,36.0254 86.5,36.5C 86.7148,34.8212 86.0481,33.8212 84.5,33.5C 85.5676,32.5655 86.901,32.2322 88.5,32.5C 88.8551,28.9226 87.8551,25.9226 85.5,23.5C 84.2857,20.8707 84.2857,18.204 85.5,15.5 Z"/></g>
<g><path style="opacity:0.004" fill="#f6d51d" d="M 58.5,23.5 C 57.8333,24.1667 57.8333,24.1667 58.5,23.5 Z"/></g>
<g><path style="opacity:0.944" fill="#a7afcc" d="M 85.5,23.5 C 87.8551,25.9226 88.8551,28.9226 88.5,32.5C 86.901,32.2322 85.5676,32.5655 84.5,33.5C 83.8333,33.5 83.5,33.8333 83.5,34.5C 83.1667,34.5 82.8333,34.5 82.5,34.5C 78.1667,34.5 73.8333,34.5 69.5,34.5C 69.5,34.1667 69.5,33.8333 69.5,33.5C 69.2601,30.4212 69.5934,27.4212 70.5,24.5C 75.456,23.5059 80.456,23.1725 85.5,23.5 Z"/></g>
<g><path style="opacity:0.999" fill="#713c39" d="M 95.5,7.5 C 96.391,8.10978 97.391,8.44312 98.5,8.5C 98.427,10.0269 99.0937,11.0269 100.5,11.5C 100.66,13.153 101.326,14.4863 102.5,15.5C 102.328,16.4916 102.662,17.1583 103.5,17.5C 103.829,20.0317 104.995,21.0317 107,20.5C 113.419,21.3129 119.919,21.8129 126.5,22C 119.415,22.1488 113.081,22.6488 107.5,23.5C 107.627,28.2321 109.293,32.2321 112.5,35.5C 116.538,39.8732 117.871,44.8732 116.5,50.5C 115.272,49.6935 114.272,48.6935 113.5,47.5C 112.921,44.6689 111.588,42.3356 109.5,40.5C 108.007,33.3289 103.674,29.9955 96.5,30.5C 97.209,29.596 98.209,29.2627 99.5,29.5C 98.8041,22.05 97.4708,14.7167 95.5,7.5 Z"/></g>
<g><path style="opacity:0.917" fill="#a3adca" d="M 107.5,23.5 C 111.167,23.5 114.833,23.5 118.5,23.5C 116.881,27.069 115.548,30.7356 114.5,34.5C 113.508,34.3284 112.842,34.6618 112.5,35.5C 109.293,32.2321 107.627,28.2321 107.5,23.5 Z"/></g>
<g><path style="opacity:0.954" fill="#c2c9dd" d="M 118.5,23.5 C 121.609,23.2641 124.609,23.5975 127.5,24.5C 127.253,27.9387 127.586,31.272 128.5,34.5C 123.833,34.5 119.167,34.5 114.5,34.5C 115.548,30.7356 116.881,27.069 118.5,23.5 Z"/></g>
<g><path style="opacity:0.004" fill="#c5ccdb" d="M 127.5,23.5 C 128.833,24.1667 128.833,24.1667 127.5,23.5 Z"/></g>
<g><path style="opacity:0.004" fill="#cbcdda" d="M 128.5,26.5 C 129.598,27.6009 129.765,28.9343 129,30.5C 128.51,29.2068 128.343,27.8734 128.5,26.5 Z"/></g>
<g><path style="opacity:1" fill="#f59a50" d="M 96.5,30.5 C 103.674,29.9955 108.007,33.3289 109.5,40.5C 106.75,37.9105 104.083,35.0772 101.5,32C 99.4024,31.3224 97.4024,31.4891 95.5,32.5C 95.5,32.1667 95.5,31.8333 95.5,31.5C 95.5,30.8333 95.8333,30.5 96.5,30.5 Z"/></g>
<g><path style="opacity:0.302" fill="#82868a" d="M 61.5,28.5 C 63.1667,28.5 64.8333,28.5 66.5,28.5C 66.5,29.8333 66.5,31.1667 66.5,32.5C 64.8333,32.5 63.1667,32.5 61.5,32.5C 61.5,31.1667 61.5,29.8333 61.5,28.5 Z"/></g>
<g><path style="opacity:1" fill="#fc6a0c" d="M 109.5,40.5 C 112.028,49.6534 112.028,58.6534 109.5,67.5C 107.5,67.5 105.5,67.5 103.5,67.5C 103.784,65.5853 103.451,63.9187 102.5,62.5C 102.5,62.1667 102.5,61.8333 102.5,61.5C 105.527,59.471 107.86,56.8044 109.5,53.5C 108.975,52.8076 108.308,52.3076 107.5,52C 103.514,51.5012 99.5138,51.3345 95.5,51.5C 95.7373,50.209 95.404,49.209 94.5,48.5C 94.1583,47.6618 93.4916,47.3284 92.5,47.5C 92.5,44.5 92.5,41.5 92.5,38.5C 93.2008,36.4123 94.2008,34.4123 95.5,32.5C 97.4024,31.4891 99.4024,31.3224 101.5,32C 104.083,35.0772 106.75,37.9105 109.5,40.5 Z"/></g>
<g><path style="opacity:0.004" fill="#d3b9a7" d="M 66.5,33.5 C 65.8333,34.1667 65.8333,34.1667 66.5,33.5 Z"/></g>
<g><path style="opacity:0.004" fill="#e7b38b" d="M 60.5,35.5 C 59.8333,34.1667 59.8333,34.1667 60.5,35.5 Z"/></g>
<g><path style="opacity:1" fill="#dddcec" d="M 69.5,34.5 C 73.8333,34.5 78.1667,34.5 82.5,34.5C 80.2115,39.2512 78.5448,44.2512 77.5,49.5C 75.8103,47.4807 74.1436,45.4807 72.5,43.5C 70.1333,41.055 69.1333,38.055 69.5,34.5 Z"/></g>
<g><path style="opacity:0.826" fill="#e8ecf6" d="M 114.5,34.5 C 119.167,34.5 123.833,34.5 128.5,34.5C 128.551,43.4742 128.551,52.1409 128.5,60.5C 127.609,61.1098 126.609,61.4431 125.5,61.5C 125.631,60.6236 125.298,59.9569 124.5,59.5C 122.872,60.5353 121.205,60.5353 119.5,59.5C 119.804,58.8501 120.137,58.1835 120.5,57.5C 119.111,55.1324 117.778,52.7991 116.5,50.5C 117.871,44.8732 116.538,39.8732 112.5,35.5C 112.842,34.6618 113.508,34.3284 114.5,34.5 Z"/></g>
<g><path style="opacity:0.86" fill="#eebc96" d="M 66.5,33.5 C 66.5,33.1667 66.5,32.8333 66.5,32.5C 67.609,32.5569 68.609,32.8902 69.5,33.5C 69.5,33.8333 69.5,34.1667 69.5,34.5C 69.1333,38.055 70.1333,41.055 72.5,43.5C 70.7162,43.8925 69.0495,44.5592 67.5,45.5C 67.5,44.8333 67.1667,44.5 66.5,44.5C 65.7101,43.2058 64.7101,42.0391 63.5,41C 61.221,40.5272 59.221,39.5272 57.5,38C 58.9423,37.6232 59.9423,36.7899 60.5,35.5C 61.9587,35.4326 63.2921,35.7659 64.5,36.5C 65.172,37.2674 66.0053,37.9341 67,38.5C 67.7796,36.6131 67.6129,34.9464 66.5,33.5 Z"/></g>
<g><path style="opacity:0.004" fill="#fccb9e" d="M 64.5,35.5 C 65.8333,36.1667 65.8333,36.1667 64.5,35.5 Z"/></g>
<g><path style="opacity:1" fill="#ebdad1" d="M 86.5,36.5 C 89.0821,36.0254 91.0821,36.6921 92.5,38.5C 92.5,41.5 92.5,44.5 92.5,47.5C 90.5786,46.6373 88.5786,45.9707 86.5,45.5C 86.5,42.5 86.5,39.5 86.5,36.5 Z"/></g>
<g><path style="opacity:0.004" fill="#f0b88c" d="M 58.5,40.5 C 59.8333,41.1667 59.8333,41.1667 58.5,40.5 Z"/></g>
<g><path style="opacity:0.004" fill="#e2ae88" d="M 60.5,42.5 C 60.8966,41.475 61.5632,41.3083 62.5,42C 61.9056,42.4643 61.2389,42.631 60.5,42.5 Z"/></g>
<g><path style="opacity:1" fill="#d3460a" d="M 84.5,33.5 C 86.0481,33.8212 86.7148,34.8212 86.5,36.5C 86.5,39.5 86.5,42.5 86.5,45.5C 86.1667,45.5 85.8333,45.5 85.5,45.5C 84.5,45.5 83.5,45.5 82.5,45.5C 82.3227,41.7657 82.6561,38.0991 83.5,34.5C 83.5,33.8333 83.8333,33.5 84.5,33.5 Z"/></g>
<g><path style="opacity:0.004" fill="#edc7a5" d="M 66.5,44.5 C 65.8333,45.1667 65.8333,45.1667 66.5,44.5 Z"/></g>
<g><path style="opacity:0.004" fill="#6f9b97" d="M 12.5,50.5 C 12.8966,49.475 13.5632,49.3083 14.5,50C 13.9056,50.4643 13.2389,50.631 12.5,50.5 Z"/></g>
<g><path style="opacity:0.004" fill="#6d9b97" d="M 15.5,50.5 C 16.2506,49.4265 17.2506,49.2599 18.5,50C 17.552,50.4828 16.552,50.6495 15.5,50.5 Z"/></g>
<g><path style="opacity:0.004" fill="#739996" d="M 11.5,51.5 C 10.8333,50.1667 10.8333,50.1667 11.5,51.5 Z"/></g>
<g><path style="opacity:0.008" fill="#729996" d="M 19.5,50.5 C 20.8333,51.1667 20.8333,51.1667 19.5,50.5 Z"/></g>
<g><path style="opacity:0.871" fill="#729d98" d="M 11.5,51.5 C 15.3721,51.2422 19.0388,51.9089 22.5,53.5C 22.8333,54.1667 23.1667,54.8333 23.5,55.5C 21.5389,57.9635 19.3722,60.2968 17,62.5C 16.586,62.0426 16.086,61.7093 15.5,61.5C 14.634,65.9111 12.3007,69.2444 8.5,71.5C 7.83333,71.1667 7.16667,70.8333 6.5,70.5C 6.16667,69.5 5.5,68.8333 4.5,68.5C 3.16667,65.1667 3.16667,61.8333 4.5,58.5C 6.5,55.8333 8.83333,53.5 11.5,51.5 Z"/></g>
<g><path style="opacity:0.004" fill="#709f98" d="M 22.5,52.5 C 23.8333,53.1667 23.8333,53.1667 22.5,52.5 Z"/></g>
<g><path style="opacity:1" fill="#f5a86b" d="M 113.5,47.5 C 114.272,48.6935 115.272,49.6935 116.5,50.5C 117.778,52.7991 119.111,55.1324 120.5,57.5C 120.137,58.1835 119.804,58.8501 119.5,59.5C 116.846,61.8343 115.512,64.8343 115.5,68.5C 112.214,69.2071 108.881,69.5405 105.5,69.5C 106.568,68.5655 107.901,68.2322 109.5,68.5C 111.117,67.962 112.784,67.6287 114.5,67.5C 113.669,60.8689 113.336,54.2022 113.5,47.5 Z"/></g>
<g><path style="opacity:1" fill="#e35206" d="M 94.5,48.5 C 95.404,49.209 95.7373,50.209 95.5,51.5C 99.5138,51.3345 103.514,51.5012 107.5,52C 108.308,52.3076 108.975,52.8076 109.5,53.5C 107.86,56.8044 105.527,59.471 102.5,61.5C 100.046,60.7729 97.7128,59.7729 95.5,58.5C 95.3841,55.1401 95.0508,51.8067 94.5,48.5 Z"/></g>
<g><path style="opacity:0.004" fill="#87b6b1" d="M 24.5,54.5 C 25.8333,55.1667 25.8333,55.1667 24.5,54.5 Z"/></g>
<g><path style="opacity:1" fill="#c23f10" d="M 82.5,34.5 C 82.8333,34.5 83.1667,34.5 83.5,34.5C 82.6561,38.0991 82.3227,41.7657 82.5,45.5C 83.5,45.5 84.5,45.5 85.5,45.5C 84.3646,47.2132 82.698,47.8799 80.5,47.5C 81.5323,56.2946 83.199,64.9612 85.5,73.5C 87.3797,73.2291 88.713,73.8958 89.5,75.5C 87.7116,76.6225 85.7116,76.7891 83.5,76C 82.3066,74.9054 80.9733,74.072 79.5,73.5C 79.5,72.1667 79.5,70.8333 79.5,69.5C 78.7724,66.9205 78.2724,64.2538 78,61.5C 75.9592,60.5769 73.7925,60.2436 71.5,60.5C 70.8333,60.1667 70.1667,59.8333 69.5,59.5C 69.6716,58.5084 69.3382,57.8417 68.5,57.5C 67.7744,53.448 67.4411,49.448 67.5,45.5C 69.0495,44.5592 70.7162,43.8925 72.5,43.5C 74.1436,45.4807 75.8103,47.4807 77.5,49.5C 78.5448,44.2512 80.2115,39.2512 82.5,34.5 Z"/></g>
<g><path style="opacity:1" fill="#94beb6" d="M 85.5,45.5 C 85.8333,45.5 86.1667,45.5 86.5,45.5C 88.5786,45.9707 90.5786,46.6373 92.5,47.5C 93.4916,47.3284 94.1583,47.6618 94.5,48.5C 95.0508,51.8067 95.3841,55.1401 95.5,58.5C 97.1859,61.5367 96.1859,62.87 92.5,62.5C 91.8394,67.1679 93.8394,69.1679 98.5,68.5C 98.5,70.1667 98.5,71.8333 98.5,73.5C 96.8212,73.2852 95.8212,73.9519 95.5,75.5C 93.5,75.5 91.5,75.5 89.5,75.5C 88.713,73.8958 87.3797,73.2291 85.5,73.5C 83.199,64.9612 81.5323,56.2946 80.5,47.5C 82.698,47.8799 84.3646,47.2132 85.5,45.5 Z"/></g>
<g><path style="opacity:0.004" fill="#6f9a96" d="M 4.5,58.5 C 3.83333,57.1667 3.83333,57.1667 4.5,58.5 Z"/></g>
<g><path style="opacity:0.004" fill="#e14100" d="M 68.5,57.5 C 67.8333,58.1667 67.8333,58.1667 68.5,57.5 Z"/></g>
<g><path style="opacity:0.004" fill="#6f9c99" d="M 3.5,58.5 C 2.83333,59.1667 2.83333,59.1667 3.5,58.5 Z"/></g>
<g><path style="opacity:0.004" fill="#e85504" d="M 34.5,60.5 C 35.8333,61.1667 35.8333,61.1667 34.5,60.5 Z"/></g>
<g><path style="opacity:0.004" fill="#f15d07" d="M 37.5,61.5 C 37.8966,60.475 38.5632,60.3083 39.5,61C 38.9056,61.4643 38.2389,61.631 37.5,61.5 Z"/></g>
<g><path style="opacity:0.004" fill="#f66b10" d="M 42.5,60.5 C 43.8333,61.1667 43.8333,61.1667 42.5,60.5 Z"/></g>
<g><path style="opacity:1" fill="#a6351b" d="M 71.5,60.5 C 73.7925,60.2436 75.9592,60.5769 78,61.5C 78.2724,64.2538 78.7724,66.9205 79.5,69.5C 77.8561,69.7135 76.3561,69.3802 75,68.5C 73.5462,65.9289 72.3795,63.2622 71.5,60.5 Z"/></g>
<g><path style="opacity:1" fill="#ecbd95" d="M 95.5,58.5 C 97.7128,59.7729 100.046,60.7729 102.5,61.5C 102.5,61.8333 102.5,62.1667 102.5,62.5C 103.067,65.9114 101.734,67.9114 98.5,68.5C 93.8394,69.1679 91.8394,67.1679 92.5,62.5C 96.1859,62.87 97.1859,61.5367 95.5,58.5 Z"/></g>
<g><path style="opacity:0.841" fill="#dadef1" d="M 69.5,59.5 C 70.1667,59.8333 70.8333,60.1667 71.5,60.5C 72.3795,63.2622 73.5462,65.9289 75,68.5C 76.3561,69.3802 77.8561,69.7135 79.5,69.5C 79.5,70.8333 79.5,72.1667 79.5,73.5C 79.5,74.1667 79.5,74.8333 79.5,75.5C 78.5386,77.2646 78.2053,79.2646 78.5,81.5C 75.1445,81.9086 72.1445,81.2419 69.5,79.5C 69.5,72.8333 69.5,66.1667 69.5,59.5 Z"/></g>
<g><path style="opacity:1" fill="#f78840" d="M 109.5,40.5 C 111.588,42.3356 112.921,44.6689 113.5,47.5C 113.336,54.2022 113.669,60.8689 114.5,67.5C 112.784,67.6287 111.117,67.962 109.5,68.5C 109.5,68.1667 109.5,67.8333 109.5,67.5C 112.028,58.6534 112.028,49.6534 109.5,40.5 Z"/></g>
<g><path style="opacity:1" fill="#94c5c0" d="M 23.5,55.5 C 23.8333,55.5 24.1667,55.5 24.5,55.5C 26.8834,58.9464 27.5501,62.6131 26.5,66.5C 25.7106,67.915 25.0439,69.415 24.5,71C 27.6485,76.9094 26.8152,77.7427 22,73.5C 18.5449,74.5504 15.0449,74.7171 11.5,74C 10.0577,73.6232 9.05773,72.7899 8.5,71.5C 12.3007,69.2444 14.634,65.9111 15.5,61.5C 16.086,61.7093 16.586,62.0426 17,62.5C 19.3722,60.2968 21.5389,57.9635 23.5,55.5 Z"/></g>
<g><path style="opacity:0.004" fill="#db4e08" d="M 31.5,65.5 C 30.8333,64.1667 30.8333,64.1667 31.5,65.5 Z"/></g>
<g><path style="opacity:1" fill="#e2550f" d="M 44.5,63.5 C 42.1223,65.8785 40.1223,68.5451 38.5,71.5C 37.5041,71.4142 36.6708,71.7476 36,72.5C 35.6667,73.8333 35.3333,75.1667 35,76.5C 34.586,76.0426 34.086,75.7093 33.5,75.5C 32.5713,76.6888 32.238,78.0222 32.5,79.5C 31.2101,78.9423 30.3768,77.9423 30,76.5C 29.4572,73.1322 29.6239,69.7989 30.5,66.5C 31.1667,66.5 31.5,66.1667 31.5,65.5C 32.3094,64.5313 33.3094,63.6979 34.5,63C 38.0267,62.1925 41.3601,62.3592 44.5,63.5 Z"/></g>
<g><path style="opacity:0.004" fill="#709b98" d="M 2.5,66.5 C 3.83333,67.1667 3.83333,67.1667 2.5,66.5 Z"/></g>
<g><path style="opacity:0.966" fill="#2e3136" d="M 128.5,60.5 C 129.09,61.766 129.59,63.0993 130,64.5C 130.92,64.9302 131.753,65.2635 132.5,65.5C 131.828,67.5295 131.162,69.5295 130.5,71.5C 129.833,72.8333 129.167,74.1667 128.5,75.5C 128.5,74.5 128.5,73.5 128.5,72.5C 127.5,72.5 126.5,72.5 125.5,72.5C 126.341,69.4814 127.341,66.4814 128.5,63.5C 127.398,62.8243 126.398,62.1577 125.5,61.5C 126.609,61.4431 127.609,61.1098 128.5,60.5 Z"/></g>
<g><path style="opacity:0.903" fill="#e3e2e1" d="M 46.5,67.5 C 52.2055,67.1712 57.8722,67.5046 63.5,68.5C 64.4173,71.7577 64.7507,75.091 64.5,78.5C 57.7446,78.2066 51.0779,78.5399 44.5,79.5C 44.2786,76.7212 44.612,74.0545 45.5,71.5C 46.4345,70.4324 46.7678,69.099 46.5,67.5 Z"/></g>
<g><path style="opacity:0.004" fill="#669791" d="M 4.5,68.5 C 3.83333,69.1667 3.83333,69.1667 4.5,68.5 Z"/></g>
<g><path style="opacity:0.999" fill="#f98c36" d="M 44.5,63.5 C 45.3446,64.6715 46.0113,66.0048 46.5,67.5C 46.7678,69.099 46.4345,70.4324 45.5,71.5C 42.9952,72.4171 40.6618,72.4171 38.5,71.5C 40.1223,68.5451 42.1223,65.8785 44.5,63.5 Z"/></g>
<g><path style="opacity:1" fill="#d55417" d="M 102.5,62.5 C 103.451,63.9187 103.784,65.5853 103.5,67.5C 105.5,67.5 107.5,67.5 109.5,67.5C 109.5,67.8333 109.5,68.1667 109.5,68.5C 107.901,68.2322 106.568,68.5655 105.5,69.5C 103.832,71.4786 103.166,73.812 103.5,76.5C 100.873,77.0916 98.2062,77.4249 95.5,77.5C 95.5,76.8333 95.5,76.1667 95.5,75.5C 95.8212,73.9519 96.8212,73.2852 98.5,73.5C 98.5,71.8333 98.5,70.1667 98.5,68.5C 101.734,67.9114 103.067,65.9114 102.5,62.5 Z"/></g>
<g><path style="opacity:1" fill="#17171a" d="M 119.5,59.5 C 121.205,60.5353 122.872,60.5353 124.5,59.5C 125.298,59.9569 125.631,60.6236 125.5,61.5C 126.398,62.1577 127.398,62.8243 128.5,63.5C 127.341,66.4814 126.341,69.4814 125.5,72.5C 122.763,71.2747 119.763,70.608 116.5,70.5C 116.167,69.8333 115.833,69.1667 115.5,68.5C 115.512,64.8343 116.846,61.8343 119.5,59.5 Z"/></g>
<g><path style="opacity:0.971" fill="#efeef3" d="M 115.5,68.5 C 115.833,69.1667 116.167,69.8333 116.5,70.5C 116.323,74.2343 116.656,77.9009 117.5,81.5C 115.167,81.5 112.833,81.5 110.5,81.5C 109.108,79.7274 107.941,77.7274 107,75.5C 106.82,77.4884 106.986,79.4884 107.5,81.5C 106.5,81.5 105.5,81.5 104.5,81.5C 104.784,79.5853 104.451,77.9187 103.5,76.5C 103.166,73.812 103.832,71.4786 105.5,69.5C 108.881,69.5405 112.214,69.2071 115.5,68.5 Z"/></g>
<g><path style="opacity:0.004" fill="#2d3238" d="M 130.5,71.5 C 131.525,71.8966 131.692,72.5632 131,73.5C 130.536,72.9056 130.369,72.2389 130.5,71.5 Z"/></g>
<g><path style="opacity:1" fill="#edbd97" d="M 38.5,71.5 C 40.6618,72.4171 42.9952,72.4171 45.5,71.5C 44.612,74.0545 44.2786,76.7212 44.5,79.5C 44.6602,81.1992 44.4935,82.8659 44,84.5C 42.1978,85.7893 41.0312,87.4559 40.5,89.5C 40.5,90.5 40.5,91.5 40.5,92.5C 39.5,92.5 38.5,92.5 37.5,92.5C 35.4131,91.4154 34.0798,89.7488 33.5,87.5C 33.4332,85.5992 33.7665,83.7659 34.5,82C 33.9444,80.9889 33.2778,80.1556 32.5,79.5C 32.238,78.0222 32.5713,76.6888 33.5,75.5C 34.086,75.7093 34.586,76.0426 35,76.5C 35.3333,75.1667 35.6667,73.8333 36,72.5C 36.6708,71.7476 37.5041,71.4142 38.5,71.5 Z"/></g>
<g><path style="opacity:0.69" fill="#e8e1df" d="M 128.5,76.5 C 128.567,77.9587 128.234,79.2921 127.5,80.5C 126.876,80.0831 126.543,79.4164 126.5,78.5C 126.747,77.2867 127.414,76.62 128.5,76.5 Z"/></g>
<g><path style="opacity:0.976" fill="#e6e7e7" d="M 26.5,66.5 C 27.8333,66.5 29.1667,66.5 30.5,66.5C 29.6239,69.7989 29.4572,73.1322 30,76.5C 30.3768,77.9423 31.2101,78.9423 32.5,79.5C 33.2778,80.1556 33.9444,80.9889 34.5,82C 33.7665,83.7659 33.4332,85.5992 33.5,87.5C 30.0078,88.4097 27.0078,90.0764 24.5,92.5C 18.4055,99.3556 14.4055,107.356 12.5,116.5C 10.8819,119.171 10.2153,122.171 10.5,125.5C 9.04125,125.567 7.70792,125.234 6.5,124.5C 6.16229,106.421 6.16229,88.4212 6.5,70.5C 7.16667,70.8333 7.83333,71.1667 8.5,71.5C 9.05773,72.7899 10.0577,73.6232 11.5,74C 15.0449,74.7171 18.5449,74.5504 22,73.5C 26.8152,77.7427 27.6485,76.9094 24.5,71C 25.0439,69.415 25.7106,67.915 26.5,66.5 Z"/></g>
<g><path style="opacity:0.954" fill="#f4f5f5" d="M 64.5,78.5 C 64.6666,93.5037 64.4999,108.504 64,123.5C 61.1984,125.391 60.0318,128.058 60.5,131.5C 59.1667,131.5 57.8333,131.5 56.5,131.5C 55.9586,128.348 56.9586,125.848 59.5,124C 57.5273,123.505 55.5273,123.338 53.5,123.5C 53.7678,121.901 53.4345,120.568 52.5,119.5C 52.0353,113.047 51.0353,106.713 49.5,100.5C 47.6283,95.9568 44.6283,92.2901 40.5,89.5C 41.0312,87.4559 42.1978,85.7893 44,84.5C 44.4935,82.8659 44.6602,81.1992 44.5,79.5C 51.0779,78.5399 57.7446,78.2066 64.5,78.5 Z"/></g>
<g><path style="opacity:0.992" fill="#3b363f" d="M 79.5,73.5 C 80.9733,74.072 82.3066,74.9054 83.5,76C 85.7116,76.7891 87.7116,76.6225 89.5,75.5C 91.5,75.5 93.5,75.5 95.5,75.5C 95.5,76.1667 95.5,76.8333 95.5,77.5C 95.0825,78.2216 94.4158,78.7216 93.5,79C 89.8333,79.6667 86.1667,79.6667 82.5,79C 80.9371,78.2411 79.9371,77.0744 79.5,75.5C 79.5,74.8333 79.5,74.1667 79.5,73.5 Z"/></g>
<g><path style="opacity:0.004" fill="#d7def1" d="M 69.5,79.5 C 68.8333,80.1667 68.8333,80.1667 69.5,79.5 Z"/></g>
<g><path style="opacity:0.757" fill="#51545a" d="M 79.5,75.5 C 79.9371,77.0744 80.9371,78.2411 82.5,79C 86.1667,79.6667 89.8333,79.6667 93.5,79C 94.4158,78.7216 95.0825,78.2216 95.5,77.5C 98.2062,77.4249 100.873,77.0916 103.5,76.5C 104.451,77.9187 104.784,79.5853 104.5,81.5C 95.8333,81.5 87.1667,81.5 78.5,81.5C 78.2053,79.2646 78.5386,77.2646 79.5,75.5 Z"/></g>
<g><path style="opacity:0.998" fill="#683f2f" d="M 116.5,70.5 C 119.763,70.608 122.763,71.2747 125.5,72.5C 126.5,72.5 127.5,72.5 128.5,72.5C 128.5,73.5 128.5,74.5 128.5,75.5C 128.5,75.8333 128.5,76.1667 128.5,76.5C 127.414,76.62 126.747,77.2867 126.5,78.5C 126.543,79.4164 126.876,80.0831 127.5,80.5C 127.5,81.1667 127.5,81.8333 127.5,82.5C 126.99,85.6743 125.323,88.0077 122.5,89.5C 120.952,89.1788 120.285,88.1788 120.5,86.5C 119.925,84.5887 118.925,82.922 117.5,81.5C 116.656,77.9009 116.323,74.2343 116.5,70.5 Z"/></g>
<g><path style="opacity:0.004" fill="#8abeba" d="M 129.5,82.5 C 130.833,83.1667 130.833,83.1667 129.5,82.5 Z"/></g>
<g><path style="opacity:0.869" fill="#5f3628" d="M 110.5,81.5 C 111.892,84.0067 112.892,86.6733 113.5,89.5C 113.5,90.5 113.5,91.5 113.5,92.5C 111.589,93.075 109.922,94.075 108.5,95.5C 108.672,94.5084 108.338,93.8417 107.5,93.5C 107.672,92.5084 107.338,91.8417 106.5,91.5C 103.801,87.9078 104.135,84.5745 107.5,81.5C 106.986,79.4884 106.82,77.4884 107,75.5C 107.941,77.7274 109.108,79.7274 110.5,81.5 Z"/></g>
<g><path style="opacity:0.004" fill="#86b8b2" d="M 132.5,84.5 C 133.833,85.1667 133.833,85.1667 132.5,84.5 Z"/></g>
<g><path style="opacity:0.004" fill="#85bdb5" d="M 134.5,85.5 C 135.833,86.1667 135.833,86.1667 134.5,85.5 Z"/></g>
<g><path style="opacity:0.004" fill="#bbd9b8" d="M 137.5,87.5 C 138.833,88.1667 138.833,88.1667 137.5,87.5 Z"/></g>
<g><path style="opacity:0.004" fill="#a7ded7" d="M 139.5,89.5 C 140.833,90.1667 140.833,90.1667 139.5,89.5 Z"/></g>
<g><path style="opacity:0.004" fill="#563123" d="M 106.5,91.5 C 105.833,92.1667 105.833,92.1667 106.5,91.5 Z"/></g>
<g><path style="opacity:0.004" fill="#c5d6b1" d="M 140.5,91.5 C 141.833,92.1667 141.833,92.1667 140.5,91.5 Z"/></g>
<g><path style="opacity:1" fill="#b5c2aa" d="M 40.5,89.5 C 44.6283,92.2901 47.6283,95.9568 49.5,100.5C 45.543,98.5274 41.8763,96.1941 38.5,93.5C 37.8333,93.5 37.5,93.1667 37.5,92.5C 38.5,92.5 39.5,92.5 40.5,92.5C 40.5,91.5 40.5,90.5 40.5,89.5 Z"/></g>
<g><path style="opacity:0.004" fill="#553022" d="M 107.5,93.5 C 106.833,94.1667 106.833,94.1667 107.5,93.5 Z"/></g>
<g><path style="opacity:0.004" fill="#c4dab3" d="M 141.5,93.5 C 142.833,94.1667 142.833,94.1667 141.5,93.5 Z"/></g>
<g><path style="opacity:1" fill="#3c2f2e" d="M 113.5,92.5 C 114.167,93.1667 114.833,93.8333 115.5,94.5C 114.5,95.8333 113.5,97.1667 112.5,98.5C 111.833,98.5 111.167,98.5 110.5,98.5C 110.5,97.8333 110.167,97.5 109.5,97.5C 109.167,96.8333 108.833,96.1667 108.5,95.5C 109.922,94.075 111.589,93.075 113.5,92.5 Z"/></g>
<g><path style="opacity:0.764" fill="#bdd9b7" d="M 136.5,88.5 C 136.833,88.5 137.167,88.5 137.5,88.5C 137.833,89.5 138.5,90.1667 139.5,90.5C 139.328,91.4916 139.662,92.1583 140.5,92.5C 140.328,93.4916 140.662,94.1583 141.5,94.5C 142.833,100.167 142.833,105.833 141.5,111.5C 140.252,110.666 139.585,109.333 139.5,107.5C 138.907,101.081 137.907,94.7472 136.5,88.5 Z"/></g>
<g><path style="opacity:0.997" fill="#5a888b" d="M 120.5,86.5 C 120.285,88.1788 120.952,89.1788 122.5,89.5C 120.685,91.4685 120.185,93.8018 121,96.5C 121.757,94.6854 122.59,93.0188 123.5,91.5C 124.117,91.6107 124.617,91.944 125,92.5C 125.854,96.6251 125.52,100.625 124,104.5C 120.551,101.562 117.718,98.2291 115.5,94.5C 114.833,93.8333 114.167,93.1667 113.5,92.5C 113.5,91.5 113.5,90.5 113.5,89.5C 115.838,89.3273 118.171,88.3273 120.5,86.5 Z"/></g>
<g><path style="opacity:0.004" fill="#c4dab4" d="M 143.5,97.5 C 144.573,98.2506 144.74,99.2506 144,100.5C 143.517,99.552 143.351,98.552 143.5,97.5 Z"/></g>
<g><path style="opacity:1" fill="#1a3c50" d="M 24.5,92.5 C 25.66,94.2271 26.66,96.5605 27.5,99.5C 26.7821,105.503 26.1155,111.503 25.5,117.5C 20.9677,117.818 16.6344,117.485 12.5,116.5C 14.4055,107.356 18.4055,99.3556 24.5,92.5 Z"/></g>
<g><path style="opacity:1" fill="#2c5b6a" d="M 33.5,87.5 C 34.0798,89.7488 35.4131,91.4154 37.5,92.5C 37.5,93.1667 37.8333,93.5 38.5,93.5C 37.9148,95.922 36.4148,97.5887 34,98.5C 33.3546,102.362 33.5213,106.196 34.5,110C 34.3333,110.833 34.1667,111.667 34,112.5C 33.3457,111.304 32.8457,111.304 32.5,112.5C 33.1882,113.855 34.1882,114.855 35.5,115.5C 34.9688,117.544 33.8022,119.211 32,120.5C 31.5045,122.473 31.3379,124.473 31.5,126.5C 31.6107,127.117 31.944,127.617 32.5,128C 30.5594,128.743 28.7261,128.576 27,127.5C 25.3484,128.399 23.8484,129.399 22.5,130.5C 19.1475,131.707 15.8142,131.707 12.5,130.5C 12.0679,129.29 11.4013,128.29 10.5,127.5C 10.5,126.833 10.5,126.167 10.5,125.5C 10.2153,122.171 10.8819,119.171 12.5,116.5C 16.6344,117.485 20.9677,117.818 25.5,117.5C 26.1155,111.503 26.7821,105.503 27.5,99.5C 26.66,96.5605 25.66,94.2271 24.5,92.5C 27.0078,90.0764 30.0078,88.4097 33.5,87.5 Z"/></g>
<g><path style="opacity:0.998" fill="#7db0ac" d="M 134.5,126.5 C 132.593,133.114 129.093,134.114 124,129.5C 121.667,125.5 119.333,121.5 117,117.5C 115.208,111.451 113.042,105.618 110.5,100C 111.416,99.7216 112.082,99.2216 112.5,98.5C 113.5,97.1667 114.5,95.8333 115.5,94.5C 117.718,98.2291 120.551,101.562 124,104.5C 125.52,100.625 125.854,96.6251 125,92.5C 124.617,91.944 124.117,91.6107 123.5,91.5C 124.462,89.0144 125.295,89.0144 126,91.5C 127,90.1667 128,90.1667 129,91.5C 129.946,86.5242 131.446,86.5242 133.5,91.5C 132.395,92.8924 131.061,94.059 129.5,95C 130.804,95.804 131.471,96.9707 131.5,98.5C 130.355,102.081 129.688,105.748 129.5,109.5C 130.556,115.337 132.223,121.003 134.5,126.5 Z"/></g>
<g><path style="opacity:1" fill="#538991" d="M 38.5,93.5 C 41.8763,96.1941 45.543,98.5274 49.5,100.5C 51.0353,106.713 52.0353,113.047 52.5,119.5C 52.7678,121.099 52.4345,122.432 51.5,123.5C 48.5,123.5 45.5,123.5 42.5,123.5C 42.4689,118.75 40.1356,116.083 35.5,115.5C 34.1882,114.855 33.1882,113.855 32.5,112.5C 32.8457,111.304 33.3457,111.304 34,112.5C 34.1667,111.667 34.3333,110.833 34.5,110C 33.5213,106.196 33.3546,102.362 34,98.5C 36.4148,97.5887 37.9148,95.922 38.5,93.5 Z"/></g>
<g><path style="opacity:0.004" fill="#699894" d="M 107.5,103.5 C 106.833,102.167 106.833,102.167 107.5,103.5 Z"/></g>
<g><path style="opacity:0.98" fill="#c2c4c6" d="M 86.5,106.5 C 93.5,106.5 100.5,106.5 107.5,106.5C 109.557,115.176 111.724,123.843 114,132.5C 118.538,132.825 122.705,133.825 126.5,135.5C 122.5,135.5 118.5,135.5 114.5,135.5C 114.389,134.883 114.056,134.383 113.5,134C 110.242,133.788 107.076,133.288 104,132.5C 98.5773,124.655 92.9106,116.989 87,109.5C 86.5172,108.552 86.3505,107.552 86.5,106.5 Z"/></g>
<g><path style="opacity:0.004" fill="#bad9b6" d="M 143.5,105.5 C 144.573,106.251 144.74,107.251 144,108.5C 143.517,107.552 143.351,106.552 143.5,105.5 Z"/></g>
<g><path style="opacity:0.004" fill="#82858a" d="M 76.5,107.5 C 76.631,108.239 76.4643,108.906 76,109.5C 75.3083,108.563 75.475,107.897 76.5,107.5 Z"/></g>
<g><path style="opacity:0.998" fill="#96cec7" d="M 127.5,82.5 C 128.167,82.8333 128.833,83.1667 129.5,83.5C 131.267,85.8901 133.6,87.5568 136.5,88.5C 137.907,94.7472 138.907,101.081 139.5,107.5C 139.585,109.333 140.252,110.666 141.5,111.5C 141.5,112.167 141.5,112.833 141.5,113.5C 138.94,118.487 138.94,123.487 141.5,128.5C 141.779,131.118 142.446,133.618 143.5,136C 140.254,135.683 136.92,135.517 133.5,135.5C 134.959,132.076 136.292,128.576 137.5,125C 137.333,124.5 137.167,124 137,123.5C 136.623,124.942 135.79,125.942 134.5,126.5C 132.223,121.003 130.556,115.337 129.5,109.5C 129.688,105.748 130.355,102.081 131.5,98.5C 131.471,96.9707 130.804,95.804 129.5,95C 131.061,94.059 132.395,92.8924 133.5,91.5C 131.446,86.5242 129.946,86.5242 129,91.5C 128,90.1667 127,90.1667 126,91.5C 125.295,89.0144 124.462,89.0144 123.5,91.5C 122.59,93.0188 121.757,94.6854 121,96.5C 120.185,93.8018 120.685,91.4685 122.5,89.5C 125.323,88.0077 126.99,85.6743 127.5,82.5 Z"/></g>
<g><path style="opacity:0.004" fill="#a5d1c0" d="M 141.5,113.5 C 142.525,113.897 142.692,114.563 142,115.5C 141.536,114.906 141.369,114.239 141.5,113.5 Z"/></g>
<g><path style="opacity:0.999" fill="#74787d" d="M 93.5,135.5 C 90.4816,135.665 87.4816,135.498 84.5,135C 83.9011,133.378 83.2344,131.878 82.5,130.5C 82.1184,126.554 81.1184,122.888 79.5,119.5C 78.9922,115.803 78.3255,112.136 77.5,108.5C 78.4959,108.586 79.3292,108.252 80,107.5C 84.4062,116.889 88.9062,126.223 93.5,135.5 Z"/></g>
<g><path style="opacity:0.004" fill="#9ad0c5" d="M 140.5,118.5 C 141.833,119.167 141.833,119.167 140.5,118.5 Z"/></g>
<g><path style="opacity:1" fill="#e9bd99" d="M 35.5,115.5 C 40.1356,116.083 42.4689,118.75 42.5,123.5C 42.631,124.239 42.4643,124.906 42,125.5C 39.7265,124.189 37.5598,124.189 35.5,125.5C 35.5,125.833 35.5,126.167 35.5,126.5C 34.1667,126.5 32.8333,126.5 31.5,126.5C 31.3379,124.473 31.5045,122.473 32,120.5C 33.8022,119.211 34.9688,117.544 35.5,115.5 Z"/></g>
<g><path style="opacity:0.004" fill="#74787c" d="M 79.5,119.5 C 78.8333,120.167 78.8333,120.167 79.5,119.5 Z"/></g>
<g><path style="opacity:0.999" fill="#4d7f86" d="M 109.5,97.5 C 110.167,97.5 110.5,97.8333 110.5,98.5C 111.167,98.5 111.833,98.5 112.5,98.5C 112.082,99.2216 111.416,99.7216 110.5,100C 113.042,105.618 115.208,111.451 117,117.5C 119.333,121.5 121.667,125.5 124,129.5C 129.093,134.114 132.593,133.114 134.5,126.5C 135.79,125.942 136.623,124.942 137,123.5C 137.167,124 137.333,124.5 137.5,125C 136.292,128.576 134.959,132.076 133.5,135.5C 131.167,135.5 128.833,135.5 126.5,135.5C 122.705,133.825 118.538,132.825 114,132.5C 111.724,123.843 109.557,115.176 107.5,106.5C 107.5,105.5 107.5,104.5 107.5,103.5C 108.989,101.501 109.656,99.5008 109.5,97.5 Z"/></g>
<g><path style="opacity:0.004" fill="#94cfca" d="M 140.5,120.5 C 141.525,120.897 141.692,121.563 141,122.5C 140.536,121.906 140.369,121.239 140.5,120.5 Z"/></g>
<g><path style="opacity:0.004" fill="#e8e9e8" d="M 4.5,122.5 C 5.83333,123.167 5.83333,123.167 4.5,122.5 Z"/></g>
<g><path style="opacity:0.004" fill="#757a83" d="M 79.5,123.5 C 80.8333,124.167 80.8333,124.167 79.5,123.5 Z"/></g>
<g><path style="opacity:0.004" fill="#e7e8e7" d="M 6.5,124.5 C 5.83333,125.167 5.83333,125.167 6.5,124.5 Z"/></g>
<g><path style="opacity:1" fill="#c3cbde" d="M 52.5,119.5 C 53.4345,120.568 53.7678,121.901 53.5,123.5C 55.5273,123.338 57.5273,123.505 59.5,124C 56.9586,125.848 55.9586,128.348 56.5,131.5C 56.1667,131.5 55.8333,131.5 55.5,131.5C 55.5,130.167 55.5,128.833 55.5,127.5C 52.1501,127.665 48.8168,127.498 45.5,127C 47.7274,126.059 49.7274,124.892 51.5,123.5C 52.4345,122.432 52.7678,121.099 52.5,119.5 Z"/></g>
<g><path style="opacity:0.004" fill="#e9f1f4" d="M 9.5,127.5 C 8.76109,127.631 8.09442,127.464 7.5,127C 8.43677,126.308 9.10343,126.475 9.5,127.5 Z"/></g>
<g><path style="opacity:0.004" fill="#f2f2f0" d="M 61.5,126.5 C 62.8333,127.167 62.8333,127.167 61.5,126.5 Z"/></g>
<g><path style="opacity:1" fill="#8a8d92" d="M 76.5,107.5 C 79.6248,106.521 82.9581,106.187 86.5,106.5C 86.3505,107.552 86.5172,108.552 87,109.5C 92.9106,116.989 98.5773,124.655 104,132.5C 107.076,133.288 110.242,133.788 113.5,134C 114.056,134.383 114.389,134.883 114.5,135.5C 107.5,135.5 100.5,135.5 93.5,135.5C 88.9062,126.223 84.4062,116.889 80,107.5C 79.3292,108.252 78.4959,108.586 77.5,108.5C 77.5,107.833 77.1667,107.5 76.5,107.5 Z"/></g>
<g><path style="opacity:0.004" fill="#94d1ca" d="M 141.5,128.5 C 141.369,127.761 141.536,127.094 142,126.5C 142.692,127.437 142.525,128.103 141.5,128.5 Z"/></g>
<g><path style="opacity:0.004" fill="#184352" d="M 9.5,127.5 C 9.83333,127.5 10.1667,127.5 10.5,127.5C 10.3147,128.17 9.98135,128.17 9.5,127.5 Z"/></g>
<g><path style="opacity:0.858" fill="#8e96b4" d="M 42.5,123.5 C 45.5,123.5 48.5,123.5 51.5,123.5C 49.7274,124.892 47.7274,126.059 45.5,127C 48.8168,127.498 52.1501,127.665 55.5,127.5C 55.5,128.833 55.5,130.167 55.5,131.5C 48.825,131.666 42.1583,131.5 35.5,131C 34.2721,129.51 34.2721,128.01 35.5,126.5C 36.8333,126.167 36.8333,125.833 35.5,125.5C 37.5598,124.189 39.7265,124.189 42,125.5C 42.4643,124.906 42.631,124.239 42.5,123.5 Z"/></g>
<g><path style="opacity:0.004" fill="#1a495b" d="M 12.5,130.5 C 11.8333,131.167 11.8333,131.167 12.5,130.5 Z"/></g>
<g><path style="opacity:0.004" fill="#32606c" d="M 22.5,130.5 C 23.8333,131.167 23.8333,131.167 22.5,130.5 Z"/></g>
<g><path style="opacity:0.004" fill="#2c5d6c" d="M 22.5,131.5 C 21.8333,132.167 21.8333,132.167 22.5,131.5 Z"/></g>
<g><path style="opacity:0.004" fill="#767f82" d="M 82.5,130.5 C 82.631,131.239 82.4643,131.906 82,132.5C 81.3083,131.563 81.475,130.897 82.5,130.5 Z"/></g>
<g><path style="opacity:0.004" fill="#95d0c9" d="M 143.5,131.5 C 144.833,132.167 144.833,132.167 143.5,131.5 Z"/></g>
</svg>
