<?xml version="1.0" encoding="UTF-8"?>
<!DOCTYPE svg PUBLIC "-//W3C//DTD SVG 1.1//EN" "http://www.w3.org/Graphics/SVG/1.1/DTD/svg11.dtd">
<svg xmlns="http://www.w3.org/2000/svg" version="1.1" width="150px" height="150px" style="shape-rendering:geometricPrecision; text-rendering:geometricPrecision; image-rendering:optimizeQuality; fill-rule:evenodd; clip-rule:evenodd" xmlns:xlink="http://www.w3.org/1999/xlink">
<g><path style="opacity:0.903" fill="#e8e9e9" d="M 99.5,24.5 C 98.791,23.596 97.791,23.2627 96.5,23.5C 97.0577,22.2101 98.0577,21.3768 99.5,21C 96.9952,19.2467 94.3286,17.7467 91.5,16.5C 90.6376,17.7658 89.9709,19.0992 89.5,20.5C 87.8212,20.7148 86.8212,20.0481 86.5,18.5C 86.6499,14.8388 85.1499,13.8388 82,15.5C 81.5172,16.448 81.3505,17.448 81.5,18.5C 79.5,17.8333 77.5,17.1667 75.5,16.5C 80.6473,12.4211 86.314,9.08774 92.5,6.5C 96.1862,11.3551 99.5195,16.5218 102.5,22C 101.87,23.3102 100.87,24.1435 99.5,24.5 Z"/></g>
<g><path style="opacity:0.949" fill="#b0aa87" d="M 72.5,31.5 C 71.0937,31.9731 70.427,32.9731 70.5,34.5C 68.8919,30.4101 67.7252,26.0768 67,21.5C 65.3362,17.9158 62.5029,16.2492 58.5,16.5C 53.2945,17.3366 48.2945,18.6699 43.5,20.5C 44.2341,19.2921 44.5674,17.9587 44.5,16.5C 49.4581,15.3443 54.4581,14.3443 59.5,13.5C 64.0331,13.3493 67.1998,15.3493 69,19.5C 70.1705,23.5185 71.3372,27.5185 72.5,31.5 Z"/></g>
<g><path style="opacity:1" fill="#f4ed81" d="M 86.5,18.5 C 84.8333,19.8333 83.1667,19.8333 81.5,18.5C 81.3505,17.448 81.5172,16.448 82,15.5C 85.1499,13.8388 86.6499,14.8388 86.5,18.5 Z"/></g>
<g><path style="opacity:1" fill="#e8e8e7" d="M 70.5,34.5 C 72.6516,42.1053 74.6516,49.772 76.5,57.5C 75.5637,58.9744 74.2303,59.9744 72.5,60.5C 71.7789,56.7313 70.4455,53.398 68.5,50.5C 70.4903,42.323 67.4903,39.4896 59.5,42C 58.1387,43.5843 57.472,45.4176 57.5,47.5C 53.0068,47.8884 48.6734,48.8884 44.5,50.5C 44.1931,42.7917 43.5265,35.125 42.5,27.5C 43.1667,27.5 43.5,27.1667 43.5,26.5C 47.36,24.3003 47.0267,22.6337 42.5,21.5C 42.5,21.1667 42.5,20.8333 42.5,20.5C 42.8333,20.5 43.1667,20.5 43.5,20.5C 48.2945,18.6699 53.2945,17.3366 58.5,16.5C 62.5029,16.2492 65.3362,17.9158 67,21.5C 67.7252,26.0768 68.8919,30.4101 70.5,34.5 Z"/></g>
<g><path style="opacity:0.889" fill="#d5d7d8" d="M 75.5,16.5 C 77.5,17.1667 79.5,17.8333 81.5,18.5C 83.1667,19.8333 84.8333,19.8333 86.5,18.5C 86.8212,20.0481 87.8212,20.7148 89.5,20.5C 88.4324,21.4345 87.099,21.7678 85.5,21.5C 85.1924,23.924 85.5258,26.2573 86.5,28.5C 89.5766,26.295 92.9099,24.6284 96.5,23.5C 97.791,23.2627 98.791,23.596 99.5,24.5C 94.7932,27.2727 89.9599,29.9394 85,32.5C 81.0668,27.6354 77.9001,22.3021 75.5,16.5 Z"/></g>
<g><path style="opacity:1" fill="#95cbc5" d="M 96.5,23.5 C 92.9099,24.6284 89.5766,26.295 86.5,28.5C 85.5258,26.2573 85.1924,23.924 85.5,21.5C 87.099,21.7678 88.4324,21.4345 89.5,20.5C 89.9709,19.0992 90.6376,17.7658 91.5,16.5C 94.3286,17.7467 96.9952,19.2467 99.5,21C 98.0577,21.3768 97.0577,22.2101 96.5,23.5 Z"/></g>
<g><path style="opacity:1" fill="#2a2d34" d="M 42.5,22.5 C 43.4345,23.5676 43.7678,24.901 43.5,26.5C 43.5,27.1667 43.1667,27.5 42.5,27.5C 39.6239,27.9272 36.7906,28.5938 34,29.5C 31.5,28.6667 31,27.1667 32.5,25C 35.7679,23.8497 39.1012,23.0164 42.5,22.5 Z"/></g>
<g><path style="opacity:1" fill="#77787d" d="M 42.5,22.5 C 42.5,22.1667 42.5,21.8333 42.5,21.5C 47.0267,22.6337 47.36,24.3003 43.5,26.5C 43.7678,24.901 43.4345,23.5676 42.5,22.5 Z"/></g>
<g><path style="opacity:1" fill="#cfcbd0" d="M 42.5,20.5 C 42.5,20.8333 42.5,21.1667 42.5,21.5C 42.5,21.8333 42.5,22.1667 42.5,22.5C 39.1012,23.0164 35.7679,23.8497 32.5,25C 31,27.1667 31.5,28.6667 34,29.5C 36.7906,28.5938 39.6239,27.9272 42.5,27.5C 43.5265,35.125 44.1931,42.7917 44.5,50.5C 43.209,50.2627 42.209,50.596 41.5,51.5C 40.8333,51.5 40.1667,51.5 39.5,51.5C 38.8201,49.6099 38.6534,47.6099 39,45.5C 36.0075,44.0343 35.1742,41.8676 36.5,39C 35.1509,38.2276 34.3176,37.0609 34,35.5C 32.2839,35.4106 30.4506,35.7439 28.5,36.5C 27.8076,35.9747 27.3076,35.3081 27,34.5C 25.9805,35.6872 24.8139,36.6872 23.5,37.5C 20.9211,36.1117 20.9211,34.6117 23.5,33C 23.1667,32.8333 22.8333,32.6667 22.5,32.5C 21.5,33.8333 20.5,33.8333 19.5,32.5C 19.6622,34.6311 18.3289,35.6311 15.5,35.5C 13.7978,31.9459 14.7978,29.1125 18.5,27C 26.4316,24.5174 34.4316,22.3508 42.5,20.5 Z"/></g>
<g><path style="opacity:0.471" fill="#2a2d34" d="M 44.5,16.5 C 44.5674,17.9587 44.2341,19.2921 43.5,20.5C 43.1667,20.5 42.8333,20.5 42.5,20.5C 34.4316,22.3508 26.4316,24.5174 18.5,27C 14.7978,29.1125 13.7978,31.9459 15.5,35.5C 15.5172,37.5648 15.8505,39.5648 16.5,41.5C 16.2792,44.0972 15.7792,44.0972 15,41.5C 13.6905,37.9296 12.8572,34.263 12.5,30.5C 12.9106,26.9209 14.9106,24.7542 18.5,24C 27.2293,21.5887 35.8959,19.0887 44.5,16.5 Z"/></g>
<g><path style="opacity:0.694" fill="#f8b6be" d="M 120.5,33.5 C 127.173,34.3375 129.673,38.0042 128,44.5C 124.671,49.0573 120.838,49.5573 116.5,46C 113.141,40.2788 114.474,36.1122 120.5,33.5 Z"/></g>
<g><path style="opacity:1" fill="#c8423d" d="M 125.5,39.5 C 122.612,38.9898 120.279,39.6565 118.5,41.5C 117.072,39.6227 117.572,38.2894 120,37.5C 122.03,37.9537 123.863,38.6204 125.5,39.5 Z"/></g>
<g><path style="opacity:1" fill="#cb150f" d="M 125.5,39.5 C 125.374,42.4678 123.874,44.4678 121,45.5C 119.519,44.5291 118.685,43.1958 118.5,41.5C 120.279,39.6565 122.612,38.9898 125.5,39.5 Z"/></g>
<g><path style="opacity:0.431" fill="#70789c" d="M 103.5,42.5 C 101.053,42.385 99.0532,41.385 97.5,39.5C 97.8425,37.7748 98.8425,37.2748 100.5,38C 101.386,39.6147 102.386,41.1147 103.5,42.5 Z"/></g>
<g><path style="opacity:1" fill="#7a83a4" d="M 68.5,50.5 C 63.6418,53.8572 59.9751,52.8572 57.5,47.5C 57.472,45.4176 58.1387,43.5843 59.5,42C 67.4903,39.4896 70.4903,42.323 68.5,50.5 Z"/></g>
<g><path style="opacity:0.946" fill="#a0aac8" d="M 97.5,39.5 C 99.0532,41.385 101.053,42.385 103.5,42.5C 106.364,47.5642 108.697,52.8976 110.5,58.5C 109.508,58.3284 108.842,58.6618 108.5,59.5C 103.733,60.5247 99.0664,61.858 94.5,63.5C 95.3679,61.5979 96.3679,59.7645 97.5,58C 97.3552,57.228 97.0219,56.5613 96.5,56C 97.7376,56.0773 98.7376,55.9106 99.5,55.5C 98.9017,54.2054 98.4017,52.8721 98,51.5C 84.1556,61.3385 68.9889,68.3385 52.5,72.5C 51.1667,71.1667 51.1667,69.8333 52.5,68.5C 59.3784,66.4279 66.0451,63.7613 72.5,60.5C 74.2303,59.9744 75.5637,58.9744 76.5,57.5C 77.4916,57.6716 78.1583,57.3382 78.5,56.5C 79.1667,56.5 79.5,56.1667 79.5,55.5C 86.4177,51.2519 92.4177,45.9186 97.5,39.5 Z"/></g>
<g><path style="opacity:1" fill="#fbfbfa" d="M 57.5,47.5 C 59.9751,52.8572 63.6418,53.8572 68.5,50.5C 70.4455,53.398 71.7789,56.7313 72.5,60.5C 66.0451,63.7613 59.3784,66.4279 52.5,68.5C 51.4168,68.4606 50.4168,68.1272 49.5,67.5C 46.8122,68.5134 44.1456,69.5134 41.5,70.5C 41.0618,70.5654 40.7284,70.3988 40.5,70C 41.5,69.5 42.5,69 43.5,68.5C 44.4948,63.2079 44.8282,57.8746 44.5,52.5C 43.209,52.7373 42.209,52.404 41.5,51.5C 42.209,50.596 43.209,50.2627 44.5,50.5C 48.6734,48.8884 53.0068,47.8884 57.5,47.5 Z"/></g>
<g><path style="opacity:1" fill="#cfd3e1" d="M 65.5,42.5 C 66.2615,45.1517 65.7615,47.8183 64,50.5C 59.9197,48.9382 59.7531,47.4382 63.5,46C 64.305,44.8873 64.9717,43.7206 65.5,42.5 Z"/></g>
<g><path style="opacity:0.071" fill="#8b8e93" d="M 75.5,45.5 C 76.7498,45.5774 77.5831,46.244 78,47.5C 78.8215,50.1168 79.3215,52.7835 79.5,55.5C 79.5,56.1667 79.1667,56.5 78.5,56.5C 77.347,52.8892 76.347,49.2226 75.5,45.5 Z"/></g>
<g><path style="opacity:1" fill="#f0f0f0" d="M 39.5,51.5 C 40.1667,51.5 40.8333,51.5 41.5,51.5C 42.209,52.404 43.209,52.7373 44.5,52.5C 44.8282,57.8746 44.4948,63.2079 43.5,68.5C 42.5,69 41.5,69.5 40.5,70C 40.7284,70.3988 41.0618,70.5654 41.5,70.5C 39.5572,71.2911 38.5572,72.7911 38.5,75C 39.1361,78.7276 40.1361,82.2276 41.5,85.5C 43.4339,92.4842 47.7672,95.1509 54.5,93.5C 55.5,93.8333 56.1667,94.5 56.5,95.5C 54.5797,98.3388 52.9131,101.339 51.5,104.5C 50.1667,104.5 48.8333,104.5 47.5,104.5C 47.5,103.167 47.5,101.833 47.5,100.5C 44.1174,100.257 40.9508,100.924 38,102.5C 33.5883,87.7987 29.4217,72.9654 25.5,58C 25.5852,56.8926 25.9186,55.8926 26.5,55C 30.9361,53.7553 35.2694,52.5887 39.5,51.5 Z"/></g>
<g><path style="opacity:1" fill="#4e5257" d="M 72.5,31.5 C 73.8152,36.0946 74.8152,40.7613 75.5,45.5C 76.347,49.2226 77.347,52.8892 78.5,56.5C 78.1583,57.3382 77.4916,57.6716 76.5,57.5C 74.6516,49.772 72.6516,42.1053 70.5,34.5C 70.427,32.9731 71.0937,31.9731 72.5,31.5 Z"/></g>
<g><path style="opacity:0.557" fill="#737b9e" d="M 110.5,58.5 C 114.231,66.2823 115.398,74.2823 114,82.5C 113.283,81.9558 112.783,81.2891 112.5,80.5C 112.091,73.2958 110.758,66.2958 108.5,59.5C 108.842,58.6618 109.508,58.3284 110.5,58.5 Z"/></g>
<g><path style="opacity:1" fill="#b7c1dd" d="M 94.5,63.5 C 80.6073,67.9084 66.9407,72.9084 53.5,78.5C 53.1667,76.5 52.8333,74.5 52.5,72.5C 68.9889,68.3385 84.1556,61.3385 98,51.5C 98.4017,52.8721 98.9017,54.2054 99.5,55.5C 98.7376,55.9106 97.7376,56.0773 96.5,56C 97.0219,56.5613 97.3552,57.228 97.5,58C 96.3679,59.7645 95.3679,61.5979 94.5,63.5 Z"/></g>
<g><path style="opacity:0.992" fill="#8792b3" d="M 108.5,59.5 C 110.758,66.2958 112.091,73.2958 112.5,80.5C 104.539,78.8362 96.5387,78.5029 88.5,79.5C 89.7226,76.7261 91.2226,74.0594 93,71.5C 93.567,68.8323 94.067,66.1656 94.5,63.5C 99.0664,61.858 103.733,60.5247 108.5,59.5 Z"/></g>
<g><path style="opacity:1" fill="#9da8c7" d="M 94.5,63.5 C 94.067,66.1656 93.567,68.8323 93,71.5C 91.2226,74.0594 89.7226,76.7261 88.5,79.5C 87.5,79.5 86.5,79.5 85.5,79.5C 84.209,79.2627 83.209,79.596 82.5,80.5C 78.076,80.2724 74.076,81.2724 70.5,83.5C 67.8427,83.9348 65.5093,84.9348 63.5,86.5C 61.8333,87.1667 60.1667,87.8333 58.5,88.5C 56.4634,85.4159 54.7968,82.0826 53.5,78.5C 66.9407,72.9084 80.6073,67.9084 94.5,63.5 Z"/></g>
<g><path style="opacity:0.832" fill="#d3e059" d="M 128.5,89.5 C 128.634,87.7085 128.301,86.0418 127.5,84.5C 130.571,85.0755 132.571,83.9088 133.5,81C 131.374,78.5587 130.041,75.7253 129.5,72.5C 128.333,74.0792 127,75.4125 125.5,76.5C 124.85,74.5648 124.517,72.5648 124.5,70.5C 137.223,69.0822 141.056,74.4155 136,86.5C 133.765,88.2024 131.265,89.2024 128.5,89.5 Z"/></g>
<g><path style="opacity:1" fill="#afacbf" d="M 52.5,68.5 C 51.1667,69.8333 51.1667,71.1667 52.5,72.5C 52.8333,74.5 53.1667,76.5 53.5,78.5C 49.7077,79.7081 46.041,81.2081 42.5,83C 41.7476,83.6708 41.4142,84.5041 41.5,85.5C 40.1361,82.2276 39.1361,78.7276 38.5,75C 38.5572,72.7911 39.5572,71.2911 41.5,70.5C 44.1456,69.5134 46.8122,68.5134 49.5,67.5C 50.4168,68.1272 51.4168,68.4606 52.5,68.5 Z"/></g>
<g><path style="opacity:1" fill="#f4f5e7" d="M 127.5,84.5 C 123.854,83.5385 122.687,81.2051 124,77.5C 124.383,76.944 124.883,76.6107 125.5,76.5C 127,75.4125 128.333,74.0792 129.5,72.5C 130.041,75.7253 131.374,78.5587 133.5,81C 132.571,83.9088 130.571,85.0755 127.5,84.5 Z"/></g>
<g><path style="opacity:1" fill="#abbe39" d="M 124.5,70.5 C 124.517,72.5648 124.85,74.5648 125.5,76.5C 124.883,76.6107 124.383,76.944 124,77.5C 122.687,81.2051 123.854,83.5385 127.5,84.5C 128.301,86.0418 128.634,87.7085 128.5,89.5C 118.955,87.071 116.455,81.4043 121,72.5C 122.113,71.695 123.279,71.0283 124.5,70.5 Z"/></g>
<g><path style="opacity:1" fill="#737b9e" d="M 53.5,78.5 C 54.7968,82.0826 56.4634,85.4159 58.5,88.5C 57.1667,90.1667 55.8333,91.8333 54.5,93.5C 47.7672,95.1509 43.4339,92.4842 41.5,85.5C 41.4142,84.5041 41.7476,83.6708 42.5,83C 46.041,81.2081 49.7077,79.7081 53.5,78.5 Z"/></g>
<g><path style="opacity:1" fill="#e9e8e8" d="M 82.5,80.5 C 86.9414,94.6465 90.4414,108.98 93,123.5C 91.4735,126.578 88.9735,128.412 85.5,129C 76.0066,131.325 66.6732,133.825 57.5,136.5C 55.2362,137.219 52.9029,137.552 50.5,137.5C 49.5318,135.393 49.1984,133.059 49.5,130.5C 53.6955,126.975 56.6955,122.642 58.5,117.5C 61.1716,116.499 63.8382,115.499 66.5,114.5C 67.5,114.167 68.1667,113.5 68.5,112.5C 68.8333,112.5 69.1667,112.5 69.5,112.5C 69.2053,114.735 69.5386,116.735 70.5,118.5C 75.7895,119.611 79.1228,117.278 80.5,111.5C 80.6716,110.508 80.3382,109.842 79.5,109.5C 79.2785,106.933 78.6118,104.599 77.5,102.5C 77.6646,99.4816 77.498,96.4816 77,93.5C 75.2453,92.33 74.2453,90.6633 74,88.5C 73.3292,87.7476 72.4959,87.4142 71.5,87.5C 71.1667,86.1667 70.8333,84.8333 70.5,83.5C 74.076,81.2724 78.076,80.2724 82.5,80.5 Z"/></g>
<g><path style="opacity:1" fill="#46474c" d="M 70.5,83.5 C 70.8333,84.8333 71.1667,86.1667 71.5,87.5C 68.4021,87.7556 65.4021,88.4222 62.5,89.5C 63.1098,88.609 63.4431,87.609 63.5,86.5C 65.5093,84.9348 67.8427,83.9348 70.5,83.5 Z"/></g>
<g><path style="opacity:1" fill="#6a3c2b" d="M 71.5,87.5 C 72.4959,87.4142 73.3292,87.7476 74,88.5C 74.2453,90.6633 75.2453,92.33 77,93.5C 77.498,96.4816 77.6646,99.4816 77.5,102.5C 77.6495,103.552 77.4828,104.552 77,105.5C 73.6356,107.255 70.8023,109.588 68.5,112.5C 68.1667,113.5 67.5,114.167 66.5,114.5C 65.0484,113.698 63.3817,113.198 61.5,113C 59.2295,110.218 56.5628,108.051 53.5,106.5C 52.5,106.167 51.8333,105.5 51.5,104.5C 52.9131,101.339 54.5797,98.3388 56.5,95.5C 58.1667,93.1667 60.1667,91.1667 62.5,89.5C 65.4021,88.4222 68.4021,87.7556 71.5,87.5 Z"/></g>
<g><path style="opacity:1" fill="#6b6d71" d="M 63.5,86.5 C 63.4431,87.609 63.1098,88.609 62.5,89.5C 60.1667,91.1667 58.1667,93.1667 56.5,95.5C 56.1667,94.5 55.5,93.8333 54.5,93.5C 55.8333,91.8333 57.1667,90.1667 58.5,88.5C 60.1667,87.8333 61.8333,87.1667 63.5,86.5 Z"/></g>
<g><path style="opacity:1" fill="#cbc6cc" d="M 39.5,51.5 C 35.2694,52.5887 30.9361,53.7553 26.5,55C 25.9186,55.8926 25.5852,56.8926 25.5,58C 29.4217,72.9654 33.5883,87.7987 38,102.5C 40.9508,100.924 44.1174,100.257 47.5,100.5C 47.5,101.833 47.5,103.167 47.5,104.5C 45.5,104.5 43.5,104.5 41.5,104.5C 43.4014,112.271 45.4014,120.104 47.5,128C 47.6842,129.376 48.3509,130.209 49.5,130.5C 49.1984,133.059 49.5318,135.393 50.5,137.5C 47.2475,139.147 44.4142,138.48 42,135.5C 33.7847,103.962 25.2847,72.6287 16.5,41.5C 15.8505,39.5648 15.5172,37.5648 15.5,35.5C 18.3289,35.6311 19.6622,34.6311 19.5,32.5C 20.5,33.8333 21.5,33.8333 22.5,32.5C 22.8333,32.6667 23.1667,32.8333 23.5,33C 20.9211,34.6117 20.9211,36.1117 23.5,37.5C 24.8139,36.6872 25.9805,35.6872 27,34.5C 27.3076,35.3081 27.8076,35.9747 28.5,36.5C 30.4506,35.7439 32.2839,35.4106 34,35.5C 34.3176,37.0609 35.1509,38.2276 36.5,39C 35.1742,41.8676 36.0075,44.0343 39,45.5C 38.6534,47.6099 38.8201,49.6099 39.5,51.5 Z"/></g>
<g><path style="opacity:0.684" fill="#32343c" d="M 12.5,30.5 C 12.8572,34.263 13.6905,37.9296 15,41.5C 15.7792,44.0972 16.2792,44.0972 16.5,41.5C 25.2847,72.6287 33.7847,103.962 42,135.5C 44.4142,138.48 47.2475,139.147 50.5,137.5C 52.9029,137.552 55.2362,137.219 57.5,136.5C 59.4832,136.157 60.8166,136.824 61.5,138.5C 57.2424,139.983 52.909,141.316 48.5,142.5C 43.6175,141.643 40.1175,138.976 38,134.5C 30.5704,105.544 22.7371,77.3773 14.5,50C 14.6448,49.228 14.9781,48.5613 15.5,48C 12.7595,42.2649 11.7595,36.4316 12.5,30.5 Z"/></g>
<g><path style="opacity:1" fill="#f0af9e" d="M 47.5,104.5 C 48.8333,104.5 50.1667,104.5 51.5,104.5C 51.8333,105.5 52.5,106.167 53.5,106.5C 53.8925,108.284 54.5592,109.95 55.5,111.5C 55.5654,111.938 55.3988,112.272 55,112.5C 51.8157,110.456 49.3157,107.79 47.5,104.5 Z"/></g>
<g><path style="opacity:0.996" fill="#f7f06c" d="M 108.5,102.5 C 110.537,103.846 112.537,105.18 114.5,106.5C 114.179,108.048 113.179,108.715 111.5,108.5C 111.5,109.833 111.5,111.167 111.5,112.5C 110.21,109.358 109.21,106.025 108.5,102.5 Z"/></g>
<g><path style="opacity:1" fill="#5a5b5f" d="M 77.5,102.5 C 78.6118,104.599 79.2785,106.933 79.5,109.5C 76.2047,110.284 72.8714,111.284 69.5,112.5C 69.1667,112.5 68.8333,112.5 68.5,112.5C 70.8023,109.588 73.6356,107.255 77,105.5C 77.4828,104.552 77.6495,103.552 77.5,102.5 Z"/></g>
<g><path style="opacity:1" fill="#50281a" d="M 53.5,106.5 C 56.5628,108.051 59.2295,110.218 61.5,113C 63.3817,113.198 65.0484,113.698 66.5,114.5C 63.8382,115.499 61.1716,116.499 58.5,117.5C 58.0075,115.181 57.0075,113.181 55.5,111.5C 54.5592,109.95 53.8925,108.284 53.5,106.5 Z"/></g>
<g><path style="opacity:0.675" fill="#4c5157" d="M 85.5,79.5 C 88.84,92.5253 92.34,105.525 96,118.5C 97.0557,124.328 94.889,128.495 89.5,131C 80.2347,133.816 70.9013,136.316 61.5,138.5C 60.8166,136.824 59.4832,136.157 57.5,136.5C 66.6732,133.825 76.0066,131.325 85.5,129C 88.9735,128.412 91.4735,126.578 93,123.5C 90.4414,108.98 86.9414,94.6465 82.5,80.5C 83.209,79.596 84.209,79.2627 85.5,79.5 Z"/></g>
<g><path style="opacity:0.98" fill="#f9da28" d="M 108.5,102.5 C 109.21,106.025 110.21,109.358 111.5,112.5C 112.767,114.78 113.767,117.28 114.5,120C 115.13,121.31 116.13,122.144 117.5,122.5C 118.831,126.496 120.164,130.496 121.5,134.5C 113.528,129.845 105.528,125.178 97.5,120.5C 101.192,114.436 104.859,108.436 108.5,102.5 Z"/></g>
<g><path style="opacity:1" fill="#a4a8ab" d="M 79.5,109.5 C 80.3382,109.842 80.6716,110.508 80.5,111.5C 76.7792,113.354 73.4459,115.687 70.5,118.5C 69.5386,116.735 69.2053,114.735 69.5,112.5C 72.8714,111.284 76.2047,110.284 79.5,109.5 Z"/></g>
<g><path style="opacity:0.951" fill="#faf8b2" d="M 123.5,111.5 C 127.034,113.766 130.7,115.766 134.5,117.5C 132.365,119.369 129.698,120.036 126.5,119.5C 124.139,119.326 121.806,118.993 119.5,118.5C 119.998,115.674 121.331,113.34 123.5,111.5 Z"/></g>
<g><path style="opacity:1" fill="#60656a" d="M 80.5,111.5 C 79.1228,117.278 75.7895,119.611 70.5,118.5C 73.4459,115.687 76.7792,113.354 80.5,111.5 Z"/></g>
<g><path style="opacity:1" fill="#f9f599" d="M 114.5,106.5 C 117.661,107.913 120.661,109.58 123.5,111.5C 121.331,113.34 119.998,115.674 119.5,118.5C 121.806,118.993 124.139,119.326 126.5,119.5C 123.746,120.946 120.746,121.946 117.5,122.5C 116.13,122.144 115.13,121.31 114.5,120C 113.767,117.28 112.767,114.78 111.5,112.5C 111.5,111.167 111.5,109.833 111.5,108.5C 113.179,108.715 114.179,108.048 114.5,106.5 Z"/></g>
<g><path style="opacity:1" fill="#e58392" d="M 47.5,104.5 C 49.3157,107.79 51.8157,110.456 55,112.5C 55.3988,112.272 55.5654,111.938 55.5,111.5C 57.0075,113.181 58.0075,115.181 58.5,117.5C 56.6955,122.642 53.6955,126.975 49.5,130.5C 48.3509,130.209 47.6842,129.376 47.5,128C 45.4014,120.104 43.4014,112.271 41.5,104.5C 43.5,104.5 45.5,104.5 47.5,104.5 Z"/></g>
<g><path style="opacity:0.924" fill="#f6ef5d" d="M 134.5,117.5 C 135.573,118.251 135.74,119.251 135,120.5C 131.735,126.041 128.235,131.374 124.5,136.5C 123.482,135.807 122.482,135.141 121.5,134.5C 120.164,130.496 118.831,126.496 117.5,122.5C 120.746,121.946 123.746,120.946 126.5,119.5C 129.698,120.036 132.365,119.369 134.5,117.5 Z"/></g>
</svg>
